<svg width="13" height="10" viewBox="0 0 13 10" xmlns="http://www.w3.org/2000/svg"><path d="M4.23483871,10.5522581 C4.07827879,10.3956981 4,10.2055925 4,9.98193548 C4,9.75827845 4.07827879,9.56817283 4.23483871,9.4116129 L5.37548387,8.27096774 C5.53204379,8.11440782 5.72214942,8.03612903 5.94580645,8.03612903 C6.16946348,8.03612903 6.35956911,8.11440782 6.51612903,8.27096774 L8.98193548,10.7451613 L14.483871,5.23483871 C14.6404309,5.07827879 14.8305365,5 15.0541935,5 C15.2778506,5 15.4679562,5.07827879 15.6245161,5.23483871 L16.7651613,6.37548387 C16.9217212,6.53204379 17,6.72214942 17,6.94580645 C17,7.16946348 16.9217212,7.35956911 16.7651613,7.51612903 L9.55225806,14.7290323 C9.39569814,14.8855922 9.20559252,14.963871 8.98193548,14.963871 C8.75827845,14.963871 8.56817283,14.8855922 8.4116129,14.7290323 L4.23483871,10.5522581 Z" transform="translate(-4 -5)" fill="#38ae1e" fill-rule="evenodd"/></svg>